<svg version="1.1" viewBox="0 0 640 400" xmlns="http://www.w3.org/2000/svg" xmlns:xlink="http://www.w3.org/1999/xlink" xmlns:svgjs="http://svgjs.dev/svgjs" matcher="0.4246868794836036"><g viewBox="0 0 640 400" matcher="0.4246868794836036"><g matcher="0.4246868794836036"><g matcher="0.4246868794836036"><g matcher="0.4246868794836036"><svg viewBox="0 80 640 400" data-background-color="#dfdad6" preserveAspectRatio="xMidYMid meet" height="400" width="640" xmlns="http://www.w3.org/2000/svg" xmlns:xlink="http://www.w3.org/1999/xlink"><rect width="640" height="400" x="0" y="0" opacity="0" fill="#dfdad6" data-fill-palette-color="background" id="background"></rect><g id="tight-bounds" transform="matrix(1,0,0,1,122.24000000000001,150.20073852788443)"><svg viewBox="0 0 395.52 99.59852294423118" height="99.59852294423118" width="395.52"><g><svg viewBox="0 0 395.52 99.59852294423118" height="99.59852294423118" width="395.52"><g><svg viewBox="0 0 395.52 99.59852294423118" height="99.59852294423118" width="395.52"><g id="textblocktransform"><svg viewBox="0 0 395.52 99.59852294423118" height="99.59852294423118" width="395.52" id="textblock"><g><svg viewBox="0 0 395.52 68.35240775152643" height="68.35240775152643" width="395.52"><g transform="matrix(1,0,0,1,0,0)"><svg width="395.52" viewBox="2.200000047683716 -32.04999923706055 188.3300018310547 32.54999923706055" height="68.35240775152643" data-palette-color="#f6fefe"><path d="M19.5-7L19 0 2.2 0 2.2-31.05 19.5-31.05 19-23.4 10.75-23.4 10.75-18.75 17.9-18.75 17.9-12.15 10.75-12.15 10.75-7 19.5-7ZM21.7-5.5L21.7-5.5 21.7-32.05 29.95-32.05 29.95-8.15Q29.95-7.3 30.32-6.95 30.7-6.6 31.65-6.6L31.65-6.6 31 0.5 28.25 0.5Q24.95 0.5 23.32-0.88 21.7-2.25 21.7-5.5ZM43.34-17.4L43.34-17.4Q42.05-17.4 41.65-16.53 41.25-15.65 41.25-13.85L41.25-13.85 45.59-13.85 45.59-15.05Q45.59-17.4 43.34-17.4ZM43.55-24.55L43.55-24.55Q48.7-24.55 50.92-22.08 53.15-19.6 53.15-15L53.15-15Q53.15-14.4 52.8-9.6L52.8-9.6 41.4-9.6Q41.4-5.85 44.84-5.85L44.84-5.85Q46.5-5.85 51.3-7L51.3-7 52-0.8Q47.8 0.5 43.59 0.5L43.59 0.5Q38.45 0.5 35.7-2.88 32.95-6.25 32.95-12.05L32.95-12.05Q32.95-24.55 43.55-24.55ZM63.59-22.2L63.79-22.2Q66.54-24.55 69.84-24.55 73.14-24.55 74.47-23.03 75.79-21.5 75.79-18.45L75.79-18.45 75.79 0 67.29 0 67.29-15.6Q67.29-16.85 66.19-16.85L66.19-16.85Q64.79-16.85 63.84-16.15L63.84-16.15 63.84 0 55.44 0 55.44-23.95 63.09-23.95 63.59-22.2ZM96.84-17.7L96.84-17.7 96.59-7.35Q96.59-6.4 97.07-6.08 97.54-5.75 98.69-5.75L98.69-5.75 97.94 0.3Q95.04 0.5 94.74 0.5L94.74 0.5Q91.04 0.5 90.04-2.05L90.04-2.05 89.79-2.05Q87.94 0.5 84.09 0.5L84.09 0.5Q81.14 0.5 79.57-1.4 77.99-3.3 77.99-6.6L77.99-6.6Q77.99-10.75 80.57-12.35 83.14-13.95 88.69-14.45L88.69-14.45 88.69-15.65Q88.69-17.05 87.29-17.05L87.29-17.05Q84.89-17.05 79.79-15.6L79.79-15.6 78.54-22.9Q84.94-24.55 89.19-24.55 93.44-24.55 95.14-22.9 96.84-21.25 96.84-17.7ZM87.19-5.35L87.19-5.35Q89.04-5.35 89.04-7.3L89.04-7.3 89.04-9.75Q87.19-9.5 86.42-8.97 85.64-8.45 85.64-7.2L85.64-7.2Q85.64-5.35 87.19-5.35ZM113.39-24.5Q118.09-24.5 119.64-21.78 121.19-19.05 121.19-12.43 121.19-5.8 119.54-2.65 117.89 0.5 113.09 0.5L113.09 0.5Q109.34 0.5 107.84-1.45L107.84-1.45 107.64-1.45 107.14 0 100.59 0 100.59-32.05 108.94-32.05 108.94-23.4 109.14-23.4Q110.79-24.5 113.39-24.5L113.39-24.5ZM112.51-7.53Q112.69-8.4 112.74-9.25 112.79-10.1 112.79-12.48 112.79-14.85 112.44-16.13 112.09-17.4 111.01-17.4 109.94-17.4 108.89-16.8L108.89-16.8 108.89-6.45Q109.84-6 110.71-6 111.59-6 111.96-6.33 112.34-6.65 112.51-7.53ZM123.49-12.08Q123.49-18.65 126.01-21.6 128.54-24.55 133.91-24.55 139.29-24.55 141.74-21.65 144.19-18.75 144.19-12.13 144.19-5.5 141.79-2.5 139.39 0.5 133.94 0.5 128.49 0.5 125.99-2.5 123.49-5.5 123.49-12.08ZM135.51-16.8Q135.19-17.8 133.89-17.8 132.59-17.8 132.24-16.8 131.89-15.8 131.89-12.6L131.89-12.6 131.89-11.4Q131.89-7.85 132.24-6.8 132.59-5.75 133.86-5.75 135.14-5.75 135.49-6.8 135.84-7.85 135.84-11.1L135.84-11.1 135.84-12.55Q135.84-15.8 135.51-16.8ZM146.38-12.08Q146.38-18.65 148.91-21.6 151.43-24.55 156.81-24.55 162.18-24.55 164.63-21.65 167.08-18.75 167.08-12.13 167.08-5.5 164.68-2.5 162.28 0.5 156.83 0.5 151.38 0.5 148.88-2.5 146.38-5.5 146.38-12.08ZM158.41-16.8Q158.08-17.8 156.78-17.8 155.48-17.8 155.13-16.8 154.78-15.8 154.78-12.6L154.78-12.6 154.78-11.4Q154.78-7.85 155.13-6.8 155.48-5.75 156.76-5.75 158.03-5.75 158.38-6.8 158.73-7.85 158.73-11.1L158.73-11.1 158.73-12.55Q158.73-15.8 158.41-16.8ZM185.48-12L190.33 0 181.08 0 178.03-9.2 177.83-9.2 177.83 0 169.68 0 169.68-32.05 177.93-32.05 177.93-14.4 178.13-14.4 181.78-23.95 190.53-23.95 185.48-12Z" opacity="1" transform="matrix(1,0,0,1,0,0)" fill="#f6fefe" class="wordmark-text-0" data-fill-palette-color="primary" id="text-0"></path></svg></g></svg></g><g transform="matrix(1,0,0,1,0,84.48877076387578)"><svg viewBox="0 0 232.209792 15.109752180355404" height="15.109752180355404" width="232.209792"><g transform="matrix(1,0,0,1,0,0)"><svg width="232.209792" viewBox="1.5499999523162842 -36.400001525878906 565.489990234375 36.80000305175781" height="15.109752180355404" data-palette-color="#f6fefe"><path d="M11.3-20.9L11.3-20.9Q8-20.9 8-18.95L8-18.95Q8-17.1 11.45-16.2L11.45-16.2 15.4-15.15Q21.5-13.55 21.5-8.1L21.5-8.1Q21.5-4.35 18.88-1.98 16.25 0.4 10.53 0.4 4.8 0.4 1.6-1.2L1.6-1.2Q1.55-1.75 1.55-2.3L1.55-2.3Q1.55-5.05 2.65-7.25L2.65-7.25 6.8-7.25Q7.45-6.05 7.65-4.75L7.65-4.75Q8.65-4.45 10.5-4.45L10.5-4.45Q14.9-4.45 14.9-6.95L14.9-6.95Q14.9-7.75 14.3-8.28 13.7-8.8 11.95-9.3L11.95-9.3 8-10.45Q4.95-11.3 3.25-12.98 1.55-14.65 1.55-17.93 1.55-21.2 4.2-23.3 6.85-25.4 11.78-25.4 16.7-25.4 20.1-23.95L20.1-23.95Q20.15-23.45 20.15-22.95L20.15-22.95Q20.15-20.35 19.05-18.15L19.05-18.15 14.95-18.15Q14.3-19.3 14.1-20.55L14.1-20.55Q12.7-20.9 11.3-20.9ZM35.42 0.4Q29.5 0.4 26.65-2.75 23.8-5.9 23.8-12.28 23.8-18.65 26.97-22.03 30.15-25.4 36.1-25.4 42.05-25.4 44.92-22.4 47.8-19.4 47.8-13.03 47.8-6.65 44.57-3.13 41.35 0.4 35.42 0.4ZM31-12.7L31-12.7Q31-4.7 35.8-4.7L35.8-4.7Q38.25-4.7 39.42-6.53 40.6-8.35 40.6-12.5L40.6-12.5Q40.6-20.3 35.7-20.3L35.7-20.3Q33.3-20.3 32.15-18.57 31-16.85 31-12.7ZM62.09-20.3L62.09-20.3Q57.5-20.3 57.5-12.4L57.5-12.4Q57.5-8.4 58.77-6.83 60.05-5.25 62.45-5.25L62.45-5.25Q66.25-5.25 69.15-5.95L69.15-5.95 70.65-2.1Q69.05-1.05 66.34-0.33 63.65 0.4 61.09 0.4L61.09 0.4Q50.3 0.4 50.3-12.1L50.3-12.1Q50.3-19.4 54.05-22.6L54.05-22.6Q57.4-25.4 62.2-25.4 67-25.4 70.2-23.6L70.2-23.6Q70.25-23.1 70.25-22.65L70.25-22.65Q70.25-19.8 68.95-17.25L68.95-17.25 64.55-17.25Q63.84-18.5 63.7-20.25L63.7-20.25Q63.09-20.3 62.09-20.3ZM72.94-21.15L73.44-25Q76.24-25.65 78.64-25.65 81.04-25.65 82.69-25.5L82.69-25.5 82.69-5.55Q84.64-4.8 85.44-3.85L85.44-3.85 84.94 0 73.44 0 72.94-3.85Q73.64-4.8 75.69-5.55L75.69-5.55 75.69-19.45Q73.94-20.05 72.94-21.15L72.94-21.15ZM79.12-28.45Q74.94-28.45 74.94-32.23 74.94-36 79.12-36 83.29-36 83.29-32.23 83.29-28.45 79.12-28.45ZM88.44-21.3L88.44-21.3Q88.44-22.05 88.49-22.9L88.49-22.9Q93.14-25.4 98.49-25.4 103.84-25.4 106.17-23.38 108.49-21.35 108.49-16.65L108.49-16.65 108.49-6Q110.24-5.65 111.24-5.15L111.24-5.15 111.24-0.8Q108.69 0.4 103.94 0.4L103.94 0.4Q103.44-0.9 103.09-2.75L103.09-2.75Q100.94 0.4 95.29 0.4L95.29 0.4Q91.94 0.4 89.57-1.55 87.19-3.5 87.19-6.85 87.19-10.2 89.42-12.13 91.64-14.05 96.04-14.05L96.04-14.05 101.49-14.05 101.49-16.45Q101.49-20.35 97.34-20.35L97.34-20.35Q95.79-20.35 94.79-20.05L94.79-20.05Q94.69-17.95 94.19-16.8L94.19-16.8 89.29-16.8Q88.44-18.55 88.44-21.3ZM97.44-4.7L97.44-4.7Q99.99-4.7 101.49-6.2L101.49-6.2 101.49-10.3 97.99-10.3Q94.39-10.3 94.39-7.55L94.39-7.55Q94.39-6.3 95.17-5.5 95.94-4.7 97.44-4.7ZM112.44-31.65L112.94-35.5Q115.74-36.15 118.14-36.15 120.54-36.15 122.19-36L122.19-36 122.19-5.55Q124.14-4.8 124.94-3.85L124.94-3.85 124.44 0 112.94 0 112.44-3.85Q113.14-4.8 115.19-5.55L115.19-5.55 115.19-29.95Q113.44-30.55 112.44-31.65L112.44-31.65ZM138.23-21.15L138.73-25Q141.48-25.6 143.68-25.6 145.88-25.6 147.33-25.5L147.33-25.5 147.33-23Q148.58-24.05 150.66-24.73 152.73-25.4 154.63-25.4L154.63-25.4Q159.53-25.4 161.51-23.1 163.48-20.8 163.48-15.15L163.48-15.15 163.48-5.55Q165.43-4.8 166.23-3.85L166.23-3.85 165.73 0 154.23 0 153.73-3.85Q154.43-4.8 156.48-5.55L156.48-5.55 156.48-15.45Q156.48-18.15 155.61-19.07 154.73-20 152.48-20 150.23-20 147.98-18.4L147.98-18.4 147.98-5.55Q149.93-4.8 150.73-3.85L150.73-3.85 150.23 0 138.73 0 138.23-3.85Q138.93-4.8 140.98-5.55L140.98-5.55 140.98-19.45Q139.23-20.05 138.23-21.15L138.23-21.15ZM179.98 0.4L179.98 0.4Q173.98 0.4 170.96-2.8 167.93-6 167.93-12.1L167.93-12.1Q167.93-15.8 168.98-18.48 170.03-21.15 171.83-22.6L171.83-22.6Q175.33-25.4 179.98-25.4 184.63-25.4 187.11-23.03 189.58-20.65 189.58-14.5L189.58-14.5Q189.58-10.9 186.03-10.9L186.03-10.9 175.18-10.9Q175.38-7.75 176.81-6.45 178.23-5.15 181.33-5.15L181.33-5.15Q183.03-5.15 184.58-5.55 186.13-5.95 186.83-6.35L186.83-6.35 187.53-6.75 189.03-2.75Q188.73-2.4 188.16-1.88 187.58-1.35 185.25-0.48 182.93 0.4 179.98 0.4ZM175.23-15.05L183.13-15.35Q183.23-16.05 183.23-17.05 183.23-18.05 182.43-19.18 181.63-20.3 179.66-20.3 177.68-20.3 176.63-19.1 175.58-17.9 175.23-15.05L175.23-15.05ZM197.58-31.3L201.23-31.3 201.23-25 208.38-25 208.38-20.8 201.23-20.8 201.23-8.15Q201.23-6.55 201.68-5.83 202.13-5.1 203.83-5.1 205.53-5.1 207.48-5.85L207.48-5.85 208.98-1.95Q205.13 0 201.1 0 197.08 0 195.65-1.73 194.23-3.45 194.23-6.75L194.23-6.75 194.23-20.8 191.98-20.8 191.43-23.85Q192.23-24.8 194.73-25.75L194.73-25.75Q195.33-29.85 197.58-31.3L197.58-31.3ZM240.83 0.3L234.33 0.3 231.78-7.6Q230.98-10 230.53-13.6L230.53-13.6 230.38-14.8 229.68-14.8Q229.18-10.9 228.18-7.65L228.18-7.65 225.83 0.3 218.73 0.3 212.43-19.35Q210.28-20.1 209.48-21.15L209.48-21.15 209.98-25 221.68-25 222.18-21.15Q221.28-20.1 219.13-19.35L219.13-19.35 222.03-6.6 222.73-6.6Q223.28-9.25 224.03-12.05L224.03-12.05 227.43-24.9 233.03-24.9 236.38-12.15 237.63-6.6 238.33-6.6Q240.18-15.05 240.83-17.95L240.83-17.95 241.13-19.35Q238.88-20.15 238.13-21.15L238.13-21.15 238.63-25 249.73-25 250.23-21.15Q249.38-20 247.08-19.25L247.08-19.25 240.83 0.3ZM262.2 0.4Q256.27 0.4 253.42-2.75 250.57-5.9 250.57-12.28 250.57-18.65 253.75-22.03 256.92-25.4 262.87-25.4 268.82-25.4 271.7-22.4 274.57-19.4 274.57-13.03 274.57-6.65 271.35-3.13 268.12 0.4 262.2 0.4ZM257.77-12.7L257.77-12.7Q257.77-4.7 262.57-4.7L262.57-4.7Q265.02-4.7 266.2-6.53 267.37-8.35 267.37-12.5L267.37-12.5Q267.37-20.3 262.47-20.3L262.47-20.3Q260.07-20.3 258.92-18.57 257.77-16.85 257.77-12.7ZM292.12-18.85L292.12-18.85Q288.32-18.85 286.87-17.4L286.87-17.4 286.87-5.95Q290.92-5.2 292.42-3.85L292.42-3.85 291.92 0 277.62 0 277.12-3.85Q277.82-4.8 279.87-5.55L279.87-5.55 279.87-19.45Q278.12-20.05 277.12-21.15L277.12-21.15 277.62-25Q280.37-25.6 282.57-25.6 284.77-25.6 286.22-25.5L286.22-25.5 286.22-22.35Q287.37-23.7 289.17-24.58 290.97-25.45 292.44-25.45 293.92-25.45 294.47-25.2L294.47-25.2 294.32-18.7Q293.32-18.85 292.12-18.85ZM295.92-31.65L296.42-35.5Q299.22-36.15 301.62-36.15 304.02-36.15 305.67-36L305.67-36 305.67-5.55Q307.62-4.8 308.42-3.85L308.42-3.85 307.92 0 296.42 0 295.92-3.85Q296.62-4.8 298.67-5.55L298.67-5.55 298.67-29.95Q296.92-30.55 295.92-31.65L295.92-31.65ZM322.97 0L314.97 0 306.12-12.95 311.62-20.1Q310.77-20.6 310.42-21.15L310.42-21.15 310.92-25 321.92-25 322.42-21.15Q321.32-19.75 318.27-18.95L318.27-18.95 313.47-13.45 319.12-6Q322.22-5.3 323.47-3.85L323.47-3.85 322.97 0ZM338.86-24.55L338.86-25.95Q338.86-31.15 341.11-33.77 343.36-36.4 348.26-36.4 353.16-36.4 356.76-33.75L356.76-33.75Q356.81-33.4 356.81-32.73 356.81-32.05 356.46-30.5 356.11-28.95 355.51-28L355.51-28 351.31-28Q350.41-29.7 350.36-31.2L350.36-31.2Q349.76-31.3 349.36-31.3L349.36-31.3Q347.46-31.3 346.66-30.25 345.86-29.2 345.86-26.45L345.86-26.45 345.86-24.55 353.51-24.55 353.51-19.95 345.86-19.95 345.86-5.8Q349.61-5.05 350.96-3.85L350.96-3.85 350.46 0 336.61 0 336.11-3.85Q336.81-4.8 338.86-5.55L338.86-5.55 338.86-19.95 336.66-19.95 336.11-23.4Q337.21-24.4 338.86-24.55L338.86-24.55ZM366.54 0.4Q360.61 0.4 357.76-2.75 354.91-5.9 354.91-12.28 354.91-18.65 358.09-22.03 361.26-25.4 367.21-25.4 373.16-25.4 376.04-22.4 378.91-19.4 378.91-13.03 378.91-6.65 375.69-3.13 372.46 0.4 366.54 0.4ZM362.11-12.7L362.11-12.7Q362.11-4.7 366.91-4.7L366.91-4.7Q369.36-4.7 370.54-6.53 371.71-8.35 371.71-12.5L371.71-12.5Q371.71-20.3 366.81-20.3L366.81-20.3Q364.41-20.3 363.26-18.57 362.11-16.85 362.11-12.7ZM396.46-18.85L396.46-18.85Q392.66-18.85 391.21-17.4L391.21-17.4 391.21-5.95Q395.26-5.2 396.76-3.85L396.76-3.85 396.26 0 381.96 0 381.46-3.85Q382.16-4.8 384.21-5.55L384.21-5.55 384.21-19.45Q382.46-20.05 381.46-21.15L381.46-21.15 381.96-25Q384.71-25.6 386.91-25.6 389.11-25.6 390.56-25.5L390.56-25.5 390.56-22.35Q391.71-23.7 393.51-24.58 395.31-25.45 396.78-25.45 398.26-25.45 398.81-25.2L398.81-25.2 398.66-18.7Q397.66-18.85 396.46-18.85ZM414.85-24.55L414.85-25.95Q414.85-31.15 417.1-33.77 419.35-36.4 424.25-36.4 429.15-36.4 432.75-33.75L432.75-33.75Q432.8-33.4 432.8-32.73 432.8-32.05 432.45-30.5 432.1-28.95 431.5-28L431.5-28 427.3-28Q426.4-29.7 426.35-31.2L426.35-31.2Q425.75-31.3 425.35-31.3L425.35-31.3Q423.45-31.3 422.65-30.25 421.85-29.2 421.85-26.45L421.85-26.45 421.85-24.55 429.5-24.55 429.5-19.95 421.85-19.95 421.85-5.8Q425.6-5.05 426.95-3.85L426.95-3.85 426.45 0 412.6 0 412.1-3.85Q412.8-4.8 414.85-5.55L414.85-5.55 414.85-19.95 412.65-19.95 412.1-23.4Q413.2-24.4 414.85-24.55L414.85-24.55ZM446.2-18.85L446.2-18.85Q442.4-18.85 440.95-17.4L440.95-17.4 440.95-5.95Q445-5.2 446.5-3.85L446.5-3.85 446 0 431.7 0 431.2-3.85Q431.9-4.8 433.95-5.55L433.95-5.55 433.95-19.45Q432.2-20.05 431.2-21.15L431.2-21.15 431.7-25Q434.45-25.6 436.65-25.6 438.85-25.6 440.3-25.5L440.3-25.5 440.3-22.35Q441.45-23.7 443.25-24.58 445.05-25.45 446.53-25.45 448-25.45 448.55-25.2L448.55-25.2 448.4-18.7Q447.4-18.85 446.2-18.85ZM450.7-21.15L451.2-25Q454-25.65 456.4-25.65 458.8-25.65 460.45-25.5L460.45-25.5 460.45-5.55Q462.4-4.8 463.2-3.85L463.2-3.85 462.7 0 451.2 0 450.7-3.85Q451.4-4.8 453.45-5.55L453.45-5.55 453.45-19.45Q451.7-20.05 450.7-21.15L450.7-21.15ZM456.87-28.45Q452.7-28.45 452.7-32.23 452.7-36 456.87-36 461.05-36 461.05-32.23 461.05-28.45 456.87-28.45ZM477.2 0.4L477.2 0.4Q471.2 0.4 468.17-2.8 465.15-6 465.15-12.1L465.15-12.1Q465.15-15.8 466.2-18.48 467.25-21.15 469.05-22.6L469.05-22.6Q472.55-25.4 477.2-25.4 481.85-25.4 484.32-23.03 486.8-20.65 486.8-14.5L486.8-14.5Q486.8-10.9 483.25-10.9L483.25-10.9 472.4-10.9Q472.6-7.75 474.02-6.45 475.45-5.15 478.55-5.15L478.55-5.15Q480.25-5.15 481.8-5.55 483.35-5.95 484.05-6.35L484.05-6.35 484.75-6.75 486.25-2.75Q485.95-2.4 485.37-1.88 484.8-1.35 482.47-0.48 480.15 0.4 477.2 0.4ZM472.45-15.05L480.35-15.35Q480.45-16.05 480.45-17.05 480.45-18.05 479.65-19.18 478.85-20.3 476.87-20.3 474.9-20.3 473.85-19.1 472.8-17.9 472.45-15.05L472.45-15.05ZM489.34-21.15L489.84-25Q492.59-25.6 494.79-25.6 496.99-25.6 498.44-25.5L498.44-25.5 498.44-23Q499.69-24.05 501.77-24.73 503.84-25.4 505.74-25.4L505.74-25.4Q510.64-25.4 512.62-23.1 514.59-20.8 514.59-15.15L514.59-15.15 514.59-5.55Q516.54-4.8 517.34-3.85L517.34-3.85 516.84 0 505.34 0 504.84-3.85Q505.54-4.8 507.59-5.55L507.59-5.55 507.59-15.45Q507.59-18.15 506.72-19.07 505.84-20 503.59-20 501.34-20 499.09-18.4L499.09-18.4 499.09-5.55Q501.04-4.8 501.84-3.85L501.84-3.85 501.34 0 489.84 0 489.34-3.85Q490.04-4.8 492.09-5.55L492.09-5.55 492.09-19.45Q490.34-20.05 489.34-21.15L489.34-21.15ZM531.59-31.65L532.09-35.5Q534.94-36.15 537.54-36.15 540.14-36.15 541.99-36L541.99-36 541.99-6Q543.49-5.75 544.74-5.15L544.74-5.15 544.74-1.2Q541.74 0.4 537.14 0.4L537.14 0.4Q536.64 0.15 536.16-0.5 535.69-1.15 535.64-1.75L535.64-1.75Q534.54-0.85 532.79-0.23 531.04 0.4 529.34 0.4L529.34 0.4Q523.94 0.4 521.51-2.53 519.09-5.45 519.09-12.1L519.09-12.1Q519.09-19.65 522.79-22.7L522.79-22.7Q526.04-25.4 530.79-25.4L530.79-25.4Q532.89-25.4 534.99-24.9L534.99-24.9 534.99-29.85Q532.69-30.5 531.59-31.65L531.59-31.65ZM530.39-4.7L530.39-4.7Q533.24-4.7 534.99-6.4L534.99-6.4 534.99-19.8Q532.94-20.3 530.64-20.3 528.34-20.3 527.31-18.28 526.29-16.25 526.29-12.23 526.29-8.2 527.29-6.45 528.29-4.7 530.39-4.7ZM556.84-20.9L556.84-20.9Q553.54-20.9 553.54-18.95L553.54-18.95Q553.54-17.1 556.99-16.2L556.99-16.2 560.94-15.15Q567.04-13.55 567.04-8.1L567.04-8.1Q567.04-4.35 564.41-1.98 561.79 0.4 556.06 0.4 550.34 0.4 547.14-1.2L547.14-1.2Q547.09-1.75 547.09-2.3L547.09-2.3Q547.09-5.05 548.19-7.25L548.19-7.25 552.34-7.25Q552.99-6.05 553.19-4.75L553.19-4.75Q554.19-4.45 556.04-4.45L556.04-4.45Q560.44-4.45 560.44-6.95L560.44-6.95Q560.44-7.75 559.84-8.28 559.24-8.8 557.49-9.3L557.49-9.3 553.54-10.45Q550.49-11.3 548.79-12.98 547.09-14.65 547.09-17.93 547.09-21.2 549.74-23.3 552.39-25.4 557.31-25.4 562.24-25.4 565.64-23.95L565.64-23.95Q565.69-23.45 565.69-22.95L565.69-22.95Q565.69-20.35 564.59-18.15L564.59-18.15 560.49-18.15Q559.84-19.3 559.64-20.55L559.64-20.55Q558.24-20.9 556.84-20.9Z" opacity="1" transform="matrix(1,0,0,1,0,0)" fill="#f6fefe" class="slogan-text-1" data-fill-palette-color="secondary" id="text-1"></path></svg></g></svg></g></svg></g></svg></g></svg></g><defs></defs></svg><rect width="395.52" height="99.59852294423118" fill="none" stroke="none" visibility="hidden"></rect></g></svg></g></g></g></g><rect width="407.4780578613282" height="80.3524131774902" x="117.26097106933591" y="145.20074844360346" rx="2.5" ry="2.5" fill="transparent" class="logo-element-hover-target"></rect><rect width="244.18505859375" height="27.109729766845703" x="117.25234985351557" y="229.68952178955072" rx="2.5" ry="2.5" fill="transparent" class="logo-element-hover-target"></rect></svg>